<mxfile host="app.diagrams.net" agent="Mozilla/5.0 (Windows NT 10.0; Win64; x64; rv:132.0) Gecko/20100101 Firefox/132.0" version="24.8.6">
  <diagram name="PÃ¡gina-1" id="2UFubnlOPNcLVtzOg3cz">
    <mxGraphModel dx="1290" dy="537" grid="1" gridSize="10" guides="1" tooltips="1" connect="1" arrows="1" fold="1" page="1" pageScale="1" pageWidth="827" pageHeight="1169" math="0" shadow="0">
      <root>
        <mxCell id="0" />
        <mxCell id="1" parent="0" />
        <mxCell id="eRkIlb0fsyCub7LJsSuB-1" value="Guest user" style="shape=umlActor;verticalLabelPosition=bottom;verticalAlign=top;html=1;" parent="1" vertex="1">
          <mxGeometry x="30" y="395" width="30" height="60" as="geometry" />
        </mxCell>
        <mxCell id="eRkIlb0fsyCub7LJsSuB-2" value="Registed user" style="shape=umlActor;verticalLabelPosition=bottom;verticalAlign=top;html=1;" parent="1" vertex="1">
          <mxGeometry x="30" y="155" width="30" height="60" as="geometry" />
        </mxCell>
        <mxCell id="eRkIlb0fsyCub7LJsSuB-8" value="Galaxy Ques Game" style="swimlane;whiteSpace=wrap;html=1;swimlaneLine=1;strokeColor=default;fillColor=#FFFFFF;fillStyle=auto;" parent="1" vertex="1">
          <mxGeometry x="121" y="10" width="643" height="600" as="geometry">
            <mxRectangle x="220" y="110" width="130" height="30" as="alternateBounds" />
          </mxGeometry>
        </mxCell>
        <mxCell id="8n19WEQngOH4w24xHOeT-1" value="embark on mission" style="ellipse;whiteSpace=wrap;html=1;" parent="eRkIlb0fsyCub7LJsSuB-8" vertex="1">
          <mxGeometry x="26" y="50" width="90" height="60" as="geometry" />
        </mxCell>
        <mxCell id="eMWBEpGnt4WuFIW5Dfxf-3" style="edgeStyle=orthogonalEdgeStyle;rounded=0;orthogonalLoop=1;jettySize=auto;html=1;entryX=1;entryY=0.5;entryDx=0;entryDy=0;" parent="eRkIlb0fsyCub7LJsSuB-8" source="eMWBEpGnt4WuFIW5Dfxf-2" target="8n19WEQngOH4w24xHOeT-1" edge="1">
          <mxGeometry relative="1" as="geometry" />
        </mxCell>
        <mxCell id="eMWBEpGnt4WuFIW5Dfxf-2" value="solo mission" style="ellipse;whiteSpace=wrap;html=1;" parent="eRkIlb0fsyCub7LJsSuB-8" vertex="1">
          <mxGeometry x="155" y="50" width="90" height="60" as="geometry" />
        </mxCell>
        <mxCell id="eMWBEpGnt4WuFIW5Dfxf-4" style="edgeStyle=orthogonalEdgeStyle;rounded=0;orthogonalLoop=1;jettySize=auto;html=1;entryX=1;entryY=0.5;entryDx=0;entryDy=0;" parent="eRkIlb0fsyCub7LJsSuB-8" source="eMWBEpGnt4WuFIW5Dfxf-1" target="8n19WEQngOH4w24xHOeT-1" edge="1">
          <mxGeometry relative="1" as="geometry">
            <Array as="points">
              <mxPoint x="136" y="150" />
              <mxPoint x="136" y="80" />
            </Array>
          </mxGeometry>
        </mxCell>
        <mxCell id="eMWBEpGnt4WuFIW5Dfxf-1" value="multiplayer mission" style="ellipse;whiteSpace=wrap;html=1;" parent="eRkIlb0fsyCub7LJsSuB-8" vertex="1">
          <mxGeometry x="155" y="120" width="90" height="60" as="geometry" />
        </mxCell>
        <mxCell id="eMWBEpGnt4WuFIW5Dfxf-5" value="select faction" style="ellipse;whiteSpace=wrap;html=1;" parent="eRkIlb0fsyCub7LJsSuB-8" vertex="1">
          <mxGeometry x="26" y="190" width="90" height="60" as="geometry" />
        </mxCell>
        <mxCell id="eMWBEpGnt4WuFIW5Dfxf-9" style="edgeStyle=orthogonalEdgeStyle;rounded=0;orthogonalLoop=1;jettySize=auto;html=1;entryX=1;entryY=0.5;entryDx=0;entryDy=0;" parent="eRkIlb0fsyCub7LJsSuB-8" source="eMWBEpGnt4WuFIW5Dfxf-6" target="eMWBEpGnt4WuFIW5Dfxf-5" edge="1">
          <mxGeometry relative="1" as="geometry" />
        </mxCell>
        <mxCell id="eMWBEpGnt4WuFIW5Dfxf-6" value="join to United Earth Federation" style="ellipse;whiteSpace=wrap;html=1;" parent="eRkIlb0fsyCub7LJsSuB-8" vertex="1">
          <mxGeometry x="155" y="190" width="90" height="60" as="geometry" />
        </mxCell>
        <mxCell id="eMWBEpGnt4WuFIW5Dfxf-7" style="edgeStyle=orthogonalEdgeStyle;rounded=0;orthogonalLoop=1;jettySize=auto;html=1;exitX=0.5;exitY=1;exitDx=0;exitDy=0;" parent="eRkIlb0fsyCub7LJsSuB-8" source="eMWBEpGnt4WuFIW5Dfxf-6" target="eMWBEpGnt4WuFIW5Dfxf-6" edge="1">
          <mxGeometry relative="1" as="geometry" />
        </mxCell>
        <mxCell id="eMWBEpGnt4WuFIW5Dfxf-10" style="edgeStyle=orthogonalEdgeStyle;rounded=0;orthogonalLoop=1;jettySize=auto;html=1;entryX=1;entryY=0.5;entryDx=0;entryDy=0;" parent="eRkIlb0fsyCub7LJsSuB-8" source="eMWBEpGnt4WuFIW5Dfxf-8" target="eMWBEpGnt4WuFIW5Dfxf-5" edge="1">
          <mxGeometry relative="1" as="geometry">
            <Array as="points">
              <mxPoint x="136" y="290" />
              <mxPoint x="136" y="220" />
            </Array>
          </mxGeometry>
        </mxCell>
        <mxCell id="eMWBEpGnt4WuFIW5Dfxf-8" value="join to Nova Pirates" style="ellipse;whiteSpace=wrap;html=1;" parent="eRkIlb0fsyCub7LJsSuB-8" vertex="1">
          <mxGeometry x="155" y="260" width="90" height="60" as="geometry" />
        </mxCell>
        <mxCell id="eMWBEpGnt4WuFIW5Dfxf-11" value="choose dificulty" style="ellipse;whiteSpace=wrap;html=1;" parent="eRkIlb0fsyCub7LJsSuB-8" vertex="1">
          <mxGeometry x="26" y="400" width="90" height="60" as="geometry" />
        </mxCell>
        <mxCell id="eMWBEpGnt4WuFIW5Dfxf-20" style="edgeStyle=orthogonalEdgeStyle;rounded=0;orthogonalLoop=1;jettySize=auto;html=1;entryX=1;entryY=0.5;entryDx=0;entryDy=0;" parent="eRkIlb0fsyCub7LJsSuB-8" source="eMWBEpGnt4WuFIW5Dfxf-14" target="eMWBEpGnt4WuFIW5Dfxf-11" edge="1">
          <mxGeometry relative="1" as="geometry">
            <Array as="points">
              <mxPoint x="136" y="360" />
              <mxPoint x="136" y="430" />
            </Array>
          </mxGeometry>
        </mxCell>
        <mxCell id="eMWBEpGnt4WuFIW5Dfxf-14" value="dificulty easy" style="ellipse;whiteSpace=wrap;html=1;" parent="eRkIlb0fsyCub7LJsSuB-8" vertex="1">
          <mxGeometry x="155" y="330" width="90" height="60" as="geometry" />
        </mxCell>
        <mxCell id="eMWBEpGnt4WuFIW5Dfxf-21" style="edgeStyle=orthogonalEdgeStyle;rounded=0;orthogonalLoop=1;jettySize=auto;html=1;entryX=1;entryY=0.5;entryDx=0;entryDy=0;" parent="eRkIlb0fsyCub7LJsSuB-8" source="eMWBEpGnt4WuFIW5Dfxf-13" target="eMWBEpGnt4WuFIW5Dfxf-11" edge="1">
          <mxGeometry relative="1" as="geometry" />
        </mxCell>
        <mxCell id="eMWBEpGnt4WuFIW5Dfxf-13" value="dificulty medium" style="ellipse;whiteSpace=wrap;html=1;" parent="eRkIlb0fsyCub7LJsSuB-8" vertex="1">
          <mxGeometry x="155" y="400" width="90" height="60" as="geometry" />
        </mxCell>
        <mxCell id="eMWBEpGnt4WuFIW5Dfxf-22" style="edgeStyle=orthogonalEdgeStyle;rounded=0;orthogonalLoop=1;jettySize=auto;html=1;entryX=1;entryY=0.5;entryDx=0;entryDy=0;" parent="eRkIlb0fsyCub7LJsSuB-8" source="eMWBEpGnt4WuFIW5Dfxf-12" target="eMWBEpGnt4WuFIW5Dfxf-11" edge="1">
          <mxGeometry relative="1" as="geometry">
            <Array as="points">
              <mxPoint x="136" y="500" />
              <mxPoint x="136" y="430" />
            </Array>
          </mxGeometry>
        </mxCell>
        <mxCell id="eMWBEpGnt4WuFIW5Dfxf-12" value="dificulty hard" style="ellipse;whiteSpace=wrap;html=1;" parent="eRkIlb0fsyCub7LJsSuB-8" vertex="1">
          <mxGeometry x="155" y="470" width="90" height="60" as="geometry" />
        </mxCell>
        <mxCell id="eMWBEpGnt4WuFIW5Dfxf-17" value="choose ship and wepon" style="ellipse;whiteSpace=wrap;html=1;" parent="eRkIlb0fsyCub7LJsSuB-8" vertex="1">
          <mxGeometry x="379" y="250" width="90" height="60" as="geometry" />
        </mxCell>
        <mxCell id="eMWBEpGnt4WuFIW5Dfxf-18" value="activate special ability" style="ellipse;whiteSpace=wrap;html=1;" parent="eRkIlb0fsyCub7LJsSuB-8" vertex="1">
          <mxGeometry x="379" y="395" width="90" height="60" as="geometry" />
        </mxCell>
        <mxCell id="eMWBEpGnt4WuFIW5Dfxf-19" value="retreat" style="ellipse;whiteSpace=wrap;html=1;" parent="eRkIlb0fsyCub7LJsSuB-8" vertex="1">
          <mxGeometry x="379" y="325" width="90" height="60" as="geometry" />
        </mxCell>
        <mxCell id="eMWBEpGnt4WuFIW5Dfxf-23" value="scan for enemies" style="ellipse;whiteSpace=wrap;html=1;" parent="eRkIlb0fsyCub7LJsSuB-8" vertex="1">
          <mxGeometry x="379" y="535" width="90" height="60" as="geometry" />
        </mxCell>
        <mxCell id="eMWBEpGnt4WuFIW5Dfxf-24" value="move" style="ellipse;whiteSpace=wrap;html=1;" parent="eRkIlb0fsyCub7LJsSuB-8" vertex="1">
          <mxGeometry x="379" y="465" width="90" height="60" as="geometry" />
        </mxCell>
        <mxCell id="eMWBEpGnt4WuFIW5Dfxf-25" value="attack" style="ellipse;whiteSpace=wrap;html=1;" parent="eRkIlb0fsyCub7LJsSuB-8" vertex="1">
          <mxGeometry x="379" y="605" width="90" height="60" as="geometry" />
        </mxCell>
        <mxCell id="eMWBEpGnt4WuFIW5Dfxf-26" value="exchange points" style="ellipse;whiteSpace=wrap;html=1;" parent="eRkIlb0fsyCub7LJsSuB-8" vertex="1">
          <mxGeometry x="553" y="310" width="90" height="60" as="geometry" />
        </mxCell>
      </root>
    </mxGraphModel>
  </diagram>
</mxfile>
